<?xml version="1.0" encoding="UTF-8" standalone="no"?>
<!DOCTYPE svg PUBLIC "-//W3C//DTD SVG 1.1//EN"
 "http://www.w3.org/Graphics/SVG/1.1/DTD/svg11.dtd">
<!-- Generated by graphviz version 10.0.1 (20240210.2158)
 -->
<!-- Title: Crust::TimeProvider::getAverageFPS Pages: 1 -->
<svg width="559pt" height="39pt"
 viewBox="0.00 0.00 558.75 38.50" xmlns="http://www.w3.org/2000/svg" xmlns:xlink="http://www.w3.org/1999/xlink">
<g id="graph0" class="graph" transform="scale(1 1) rotate(0) translate(4 34.5)">
<title>Crust::TimeProvider::getAverageFPS</title>
<!-- Node1 -->
<g id="node1" class="node">
<title>Node1</title>
<g id="a_node1"><a xlink:title="Returns current average frames per seconds value based on all frames.">
<polygon fill="#999999" stroke="#666666" points="103.75,-30.5 0,-30.5 0,0 103.75,0 103.75,-30.5"/>
<text text-anchor="start" x="8" y="-17" font-family="Helvetica,sans-Serif" font-size="10.00">Crust::TimeProvider</text>
<text text-anchor="middle" x="51.88" y="-5.75" font-family="Helvetica,sans-Serif" font-size="10.00">::getAverageFPS</text>
</a>
</g>
</g>
<!-- Node2 -->
<g id="node2" class="node">
<title>Node2</title>
<g id="a_node2"><a xlink:href="class_crust_1_1_time_provider.html#affd51821a53f5e201ff3d98051f35d8a" target="_top" xlink:title="Returns average frame time from engine start in seconds.">
<polygon fill="white" stroke="#666666" points="271.25,-30.5 139.75,-30.5 139.75,0 271.25,0 271.25,-30.5"/>
<text text-anchor="start" x="147.75" y="-17" font-family="Helvetica,sans-Serif" font-size="10.00">Crust::TimeProvider</text>
<text text-anchor="middle" x="205.5" y="-5.75" font-family="Helvetica,sans-Serif" font-size="10.00">::getAverageFrameTime_s</text>
</a>
</g>
</g>
<!-- Node1&#45;&gt;Node2 -->
<g id="edge1" class="edge">
<title>Node1&#45;&gt;Node2</title>
<path fill="none" stroke="#63b8ff" d="M104.21,-15.25C111.92,-15.25 120,-15.25 128.1,-15.25"/>
<polygon fill="#63b8ff" stroke="#63b8ff" points="128,-18.75 138,-15.25 128,-11.75 128,-18.75"/>
</g>
<!-- Node3 -->
<g id="node3" class="node">
<title>Node3</title>
<g id="a_node3"><a xlink:href="class_crust_1_1_time_provider.html#ab006c8030ac9fe2c39992dfd3207d17e" target="_top" xlink:title="Returns time from engine&#39;s core start in seconds.">
<polygon fill="white" stroke="#666666" points="411,-30.5 307.25,-30.5 307.25,0 411,0 411,-30.5"/>
<text text-anchor="start" x="315.25" y="-17" font-family="Helvetica,sans-Serif" font-size="10.00">Crust::TimeProvider</text>
<text text-anchor="middle" x="359.12" y="-5.75" font-family="Helvetica,sans-Serif" font-size="10.00">::getTime_s</text>
</a>
</g>
</g>
<!-- Node2&#45;&gt;Node3 -->
<g id="edge2" class="edge">
<title>Node2&#45;&gt;Node3</title>
<path fill="none" stroke="#63b8ff" d="M271.68,-15.25C279.66,-15.25 287.81,-15.25 295.74,-15.25"/>
<polygon fill="#63b8ff" stroke="#63b8ff" points="295.67,-18.75 305.67,-15.25 295.67,-11.75 295.67,-18.75"/>
</g>
<!-- Node4 -->
<g id="node4" class="node">
<title>Node4</title>
<g id="a_node4"><a xlink:href="class_crust_1_1_time_provider.html#a7bd079284fc824dbd96c6d863197566c" target="_top" xlink:title="Returns time from engine&#39;s core start in milliseconds.">
<polygon fill="white" stroke="#666666" points="550.75,-30.5 447,-30.5 447,0 550.75,0 550.75,-30.5"/>
<text text-anchor="start" x="455" y="-17" font-family="Helvetica,sans-Serif" font-size="10.00">Crust::TimeProvider</text>
<text text-anchor="middle" x="498.88" y="-5.75" font-family="Helvetica,sans-Serif" font-size="10.00">::getTime_ms</text>
</a>
</g>
</g>
<!-- Node3&#45;&gt;Node4 -->
<g id="edge3" class="edge">
<title>Node3&#45;&gt;Node4</title>
<path fill="none" stroke="#63b8ff" d="M411.42,-15.25C419.13,-15.25 427.15,-15.25 435.07,-15.25"/>
<polygon fill="#63b8ff" stroke="#63b8ff" points="435.03,-18.75 445.03,-15.25 435.03,-11.75 435.03,-18.75"/>
</g>
</g>
</svg>
