<?xml version="1.0" encoding="UTF-8" standalone="no"?>
<!DOCTYPE svg PUBLIC "-//W3C//DTD SVG 1.1//EN"
 "http://www.w3.org/Graphics/SVG/1.1/DTD/svg11.dtd">
<!-- Generated by graphviz version 10.0.1 (20240210.2158)
 -->
<!-- Title: Crust::Logger::log Pages: 1 -->
<svg width="406pt" height="138pt"
 viewBox="0.00 0.00 405.50 138.25" xmlns="http://www.w3.org/2000/svg" xmlns:xlink="http://www.w3.org/1999/xlink">
<g id="graph0" class="graph" transform="scale(1 1) rotate(0) translate(4 134.25)">
<title>Crust::Logger::log</title>
<!-- Node1 -->
<g id="node1" class="node">
<title>Node1</title>
<g id="a_node1"><a xlink:title="Logs matrix onto the console.">
<polygon fill="#999999" stroke="#666666" points="94,-74.25 0,-74.25 0,-55 94,-55 94,-74.25"/>
<text text-anchor="middle" x="47" y="-60.75" font-family="Helvetica,sans-Serif" font-size="10.00">Crust::Logger::log</text>
</a>
</g>
</g>
<!-- Node2 -->
<g id="node2" class="node">
<title>Node2</title>
<g id="a_node2"><a xlink:href="class_crust_1_1_matrix.html#af768dac0040fc1fa51142359072f473f" target="_top" xlink:title="Get the height of the matrix.">
<polygon fill="white" stroke="#666666" points="241.25,-130.25 136,-130.25 136,-111 241.25,-111 241.25,-130.25"/>
<text text-anchor="middle" x="188.62" y="-116.75" font-family="Helvetica,sans-Serif" font-size="10.00">Crust::Matrix::height</text>
</a>
</g>
</g>
<!-- Node1&#45;&gt;Node2 -->
<g id="edge1" class="edge">
<title>Node1&#45;&gt;Node2</title>
<path fill="none" stroke="#63b8ff" d="M67.9,-74.74C84.31,-82.87 108.34,-94.26 130,-102.62 133.84,-104.11 137.87,-105.56 141.92,-106.96"/>
<polygon fill="#63b8ff" stroke="#63b8ff" points="140.6,-110.21 151.2,-110.03 142.8,-103.56 140.6,-110.21"/>
</g>
<!-- Node3 -->
<g id="node3" class="node">
<title>Node3</title>
<g id="a_node3"><a xlink:href="class_crust_1_1_logger.html#a6ea9f24b3ccf4f84af673c0f6cb082df" target="_top" xlink:title="Prints empty line onto the console.">
<polygon fill="white" stroke="#666666" points="235.62,-93.25 141.62,-93.25 141.62,-74 235.62,-74 235.62,-93.25"/>
<text text-anchor="middle" x="188.62" y="-79.75" font-family="Helvetica,sans-Serif" font-size="10.00">Crust::Logger::log</text>
</a>
</g>
</g>
<!-- Node1&#45;&gt;Node3 -->
<g id="edge2" class="edge">
<title>Node1&#45;&gt;Node3</title>
<path fill="none" stroke="#63b8ff" d="M94.49,-70.95C105.92,-72.51 118.28,-74.19 130.15,-75.8"/>
<polygon fill="#63b8ff" stroke="#63b8ff" points="129.45,-79.24 139.84,-77.12 130.4,-72.31 129.45,-79.24"/>
</g>
<!-- Node4 -->
<g id="node4" class="node">
<title>Node4</title>
<g id="a_node4"><a xlink:href="class_crust_1_1_logger.html#a4efaea5b99b4d3691649dd7dfa2dbd06" target="_top" xlink:title="Logs onto the console.">
<polygon fill="white" stroke="#666666" points="247.25,-56.25 130,-56.25 130,-37 247.25,-37 247.25,-56.25"/>
<text text-anchor="middle" x="188.62" y="-42.75" font-family="Helvetica,sans-Serif" font-size="10.00">Crust::Logger::logInline</text>
</a>
</g>
</g>
<!-- Node1&#45;&gt;Node4 -->
<g id="edge3" class="edge">
<title>Node1&#45;&gt;Node4</title>
<path fill="none" stroke="#63b8ff" d="M94.49,-58.63C102.15,-57.64 110.23,-56.6 118.3,-55.56"/>
<polygon fill="#63b8ff" stroke="#63b8ff" points="118.69,-59.04 128.16,-54.29 117.79,-52.1 118.69,-59.04"/>
</g>
<!-- Node6 -->
<g id="node6" class="node">
<title>Node6</title>
<g id="a_node6"><a xlink:href="class_crust_1_1_matrix.html#a547e82d4a3970a67be846e794a9fde97" target="_top" xlink:title="Get the width of the matrix.">
<polygon fill="white" stroke="#666666" points="239.75,-19.25 137.5,-19.25 137.5,0 239.75,0 239.75,-19.25"/>
<text text-anchor="middle" x="188.62" y="-5.75" font-family="Helvetica,sans-Serif" font-size="10.00">Crust::Matrix::width</text>
</a>
</g>
</g>
<!-- Node1&#45;&gt;Node6 -->
<g id="edge5" class="edge">
<title>Node1&#45;&gt;Node6</title>
<path fill="none" stroke="#63b8ff" d="M68.27,-54.65C84.69,-46.77 108.54,-35.78 130,-27.62 133.9,-26.14 137.99,-24.68 142.1,-23.28"/>
<polygon fill="#63b8ff" stroke="#63b8ff" points="143.12,-26.63 151.52,-20.18 140.93,-19.98 143.12,-26.63"/>
</g>
<!-- Node5 -->
<g id="node5" class="node">
<title>Node5</title>
<g id="a_node5"><a xlink:href="class_crust_1_1_logger.html#a91bf31a52746020f85e830cbfa23cfff" target="_top" xlink:title="Sets console color to colorCode and console font style to styleCode;.">
<polygon fill="white" stroke="#666666" points="397.5,-56.25 283.25,-56.25 283.25,-37 397.5,-37 397.5,-56.25"/>
<text text-anchor="middle" x="340.38" y="-42.75" font-family="Helvetica,sans-Serif" font-size="10.00">Crust::Logger::setFont</text>
</a>
</g>
</g>
<!-- Node4&#45;&gt;Node5 -->
<g id="edge4" class="edge">
<title>Node4&#45;&gt;Node5</title>
<path fill="none" stroke="#63b8ff" d="M247.52,-46.62C255.47,-46.62 263.68,-46.62 271.78,-46.62"/>
<polygon fill="#63b8ff" stroke="#63b8ff" points="271.6,-50.13 281.6,-46.63 271.6,-43.13 271.6,-50.13"/>
</g>
</g>
</svg>
