<?xml version="1.0" encoding="UTF-8" standalone="no"?>
<!DOCTYPE svg PUBLIC "-//W3C//DTD SVG 1.1//EN"
 "http://www.w3.org/Graphics/SVG/1.1/DTD/svg11.dtd">
<!-- Generated by graphviz version 10.0.1 (20240210.2158)
 -->
<!-- Title: Crust::Logger::log Pages: 1 -->
<svg width="406pt" height="64pt"
 viewBox="0.00 0.00 405.50 64.25" xmlns="http://www.w3.org/2000/svg" xmlns:xlink="http://www.w3.org/1999/xlink">
<g id="graph0" class="graph" transform="scale(1 1) rotate(0) translate(4 60.25)">
<title>Crust::Logger::log</title>
<!-- Node1 -->
<g id="node1" class="node">
<title>Node1</title>
<g id="a_node1"><a xlink:title="Logs 3 dimensional vector onto the console.">
<polygon fill="#999999" stroke="#666666" points="94,-37.25 0,-37.25 0,-18 94,-18 94,-37.25"/>
<text text-anchor="middle" x="47" y="-23.75" font-family="Helvetica,sans-Serif" font-size="10.00">Crust::Logger::log</text>
</a>
</g>
</g>
<!-- Node2 -->
<g id="node2" class="node">
<title>Node2</title>
<g id="a_node2"><a xlink:href="class_crust_1_1_logger.html#a6ea9f24b3ccf4f84af673c0f6cb082df" target="_top" xlink:title="Prints empty line onto the console.">
<polygon fill="white" stroke="#666666" points="235.62,-56.25 141.62,-56.25 141.62,-37 235.62,-37 235.62,-56.25"/>
<text text-anchor="middle" x="188.62" y="-42.75" font-family="Helvetica,sans-Serif" font-size="10.00">Crust::Logger::log</text>
</a>
</g>
</g>
<!-- Node1&#45;&gt;Node2 -->
<g id="edge1" class="edge">
<title>Node1&#45;&gt;Node2</title>
<path fill="none" stroke="#63b8ff" d="M94.49,-33.95C105.92,-35.51 118.28,-37.19 130.15,-38.8"/>
<polygon fill="#63b8ff" stroke="#63b8ff" points="129.45,-42.24 139.84,-40.12 130.4,-35.31 129.45,-42.24"/>
</g>
<!-- Node3 -->
<g id="node3" class="node">
<title>Node3</title>
<g id="a_node3"><a xlink:href="class_crust_1_1_logger.html#a4efaea5b99b4d3691649dd7dfa2dbd06" target="_top" xlink:title="Logs onto the console.">
<polygon fill="white" stroke="#666666" points="247.25,-19.25 130,-19.25 130,0 247.25,0 247.25,-19.25"/>
<text text-anchor="middle" x="188.62" y="-5.75" font-family="Helvetica,sans-Serif" font-size="10.00">Crust::Logger::logInline</text>
</a>
</g>
</g>
<!-- Node1&#45;&gt;Node3 -->
<g id="edge2" class="edge">
<title>Node1&#45;&gt;Node3</title>
<path fill="none" stroke="#63b8ff" d="M94.49,-21.63C102.15,-20.64 110.23,-19.6 118.3,-18.56"/>
<polygon fill="#63b8ff" stroke="#63b8ff" points="118.69,-22.04 128.16,-17.29 117.79,-15.1 118.69,-22.04"/>
</g>
<!-- Node4 -->
<g id="node4" class="node">
<title>Node4</title>
<g id="a_node4"><a xlink:href="class_crust_1_1_logger.html#a91bf31a52746020f85e830cbfa23cfff" target="_top" xlink:title="Sets console color to colorCode and console font style to styleCode;.">
<polygon fill="white" stroke="#666666" points="397.5,-19.25 283.25,-19.25 283.25,0 397.5,0 397.5,-19.25"/>
<text text-anchor="middle" x="340.38" y="-5.75" font-family="Helvetica,sans-Serif" font-size="10.00">Crust::Logger::setFont</text>
</a>
</g>
</g>
<!-- Node3&#45;&gt;Node4 -->
<g id="edge3" class="edge">
<title>Node3&#45;&gt;Node4</title>
<path fill="none" stroke="#63b8ff" d="M247.52,-9.62C255.47,-9.62 263.68,-9.62 271.78,-9.62"/>
<polygon fill="#63b8ff" stroke="#63b8ff" points="271.6,-13.13 281.6,-9.63 271.6,-6.13 271.6,-13.13"/>
</g>
</g>
</svg>
