<?xml version="1.0" encoding="UTF-8" standalone="no"?>
<!DOCTYPE svg PUBLIC "-//W3C//DTD SVG 1.1//EN"
 "http://www.w3.org/Graphics/SVG/1.1/DTD/svg11.dtd">
<!-- Generated by graphviz version 10.0.1 (20240210.2158)
 -->
<!-- Title: Crust::TimeProvider::getFPS Pages: 1 -->
<svg width="391pt" height="39pt"
 viewBox="0.00 0.00 391.25 38.50" xmlns="http://www.w3.org/2000/svg" xmlns:xlink="http://www.w3.org/1999/xlink">
<g id="graph0" class="graph" transform="scale(1 1) rotate(0) translate(4 34.5)">
<title>Crust::TimeProvider::getFPS</title>
<!-- Node1 -->
<g id="node1" class="node">
<title>Node1</title>
<g id="a_node1"><a xlink:title="Returns current frames per seconds value based on last frame time.">
<polygon fill="#999999" stroke="#666666" points="103.75,-30.5 0,-30.5 0,0 103.75,0 103.75,-30.5"/>
<text text-anchor="start" x="8" y="-17" font-family="Helvetica,sans-Serif" font-size="10.00">Crust::TimeProvider</text>
<text text-anchor="middle" x="51.88" y="-5.75" font-family="Helvetica,sans-Serif" font-size="10.00">::getFPS</text>
</a>
</g>
</g>
<!-- Node2 -->
<g id="node2" class="node">
<title>Node2</title>
<g id="a_node2"><a xlink:href="class_crust_1_1_time_provider.html#ac493d5950799c504f54654eed92ed0fc" target="_top" xlink:title="Returns last frame time in seconds.">
<polygon fill="white" stroke="#666666" points="243.5,-30.5 139.75,-30.5 139.75,0 243.5,0 243.5,-30.5"/>
<text text-anchor="start" x="147.75" y="-17" font-family="Helvetica,sans-Serif" font-size="10.00">Crust::TimeProvider</text>
<text text-anchor="middle" x="191.62" y="-5.75" font-family="Helvetica,sans-Serif" font-size="10.00">::getDeltaTime_s</text>
</a>
</g>
</g>
<!-- Node1&#45;&gt;Node2 -->
<g id="edge1" class="edge">
<title>Node1&#45;&gt;Node2</title>
<path fill="none" stroke="#63b8ff" d="M104.17,-15.25C111.88,-15.25 119.9,-15.25 127.82,-15.25"/>
<polygon fill="#63b8ff" stroke="#63b8ff" points="127.78,-18.75 137.78,-15.25 127.78,-11.75 127.78,-18.75"/>
</g>
<!-- Node3 -->
<g id="node3" class="node">
<title>Node3</title>
<g id="a_node3"><a xlink:href="class_crust_1_1_time_provider.html#a994e6507faa36fce39aeb1037e88716f" target="_top" xlink:title="Returns last frame time in miliseconds.">
<polygon fill="white" stroke="#666666" points="383.25,-30.5 279.5,-30.5 279.5,0 383.25,0 383.25,-30.5"/>
<text text-anchor="start" x="287.5" y="-17" font-family="Helvetica,sans-Serif" font-size="10.00">Crust::TimeProvider</text>
<text text-anchor="middle" x="331.38" y="-5.75" font-family="Helvetica,sans-Serif" font-size="10.00">::getDeltaTime_ms</text>
</a>
</g>
</g>
<!-- Node2&#45;&gt;Node3 -->
<g id="edge2" class="edge">
<title>Node2&#45;&gt;Node3</title>
<path fill="none" stroke="#63b8ff" d="M243.92,-15.25C251.63,-15.25 259.65,-15.25 267.57,-15.25"/>
<polygon fill="#63b8ff" stroke="#63b8ff" points="267.53,-18.75 277.53,-15.25 267.53,-11.75 267.53,-18.75"/>
</g>
</g>
</svg>
