<?xml version="1.0" encoding="UTF-8" standalone="no"?>
<!DOCTYPE svg PUBLIC "-//W3C//DTD SVG 1.1//EN"
 "http://www.w3.org/Graphics/SVG/1.1/DTD/svg11.dtd">
<!-- Generated by graphviz version 10.0.1 (20240210.2158)
 -->
<!-- Title: Crust::ExceptionsHandler::throwWarning Pages: 1 -->
<svg width="438pt" height="39pt"
 viewBox="0.00 0.00 437.75 38.50" xmlns="http://www.w3.org/2000/svg" xmlns:xlink="http://www.w3.org/1999/xlink">
<g id="graph0" class="graph" transform="scale(1 1) rotate(0) translate(4 34.5)">
<title>Crust::ExceptionsHandler::throwWarning</title>
<!-- Node1 -->
<g id="node1" class="node">
<title>Node1</title>
<g id="a_node1"><a xlink:title="Throws a warning. It also prints message in yellow color on the console.">
<polygon fill="#999999" stroke="#666666" points="128.5,-30.5 0,-30.5 0,0 128.5,0 128.5,-30.5"/>
<text text-anchor="start" x="8" y="-17" font-family="Helvetica,sans-Serif" font-size="10.00">Crust::ExceptionsHandler</text>
<text text-anchor="middle" x="64.25" y="-5.75" font-family="Helvetica,sans-Serif" font-size="10.00">::throwWarning</text>
</a>
</g>
</g>
<!-- Node2 -->
<g id="node2" class="node">
<title>Node2</title>
<g id="a_node2"><a xlink:href="class_crust_1_1_logger.html#ae9da193539eafa2563ee313c92f37317" target="_top" xlink:title="Logs onto the console in yellow color.">
<polygon fill="white" stroke="#666666" points="279.5,-24.88 164.5,-24.88 164.5,-5.63 279.5,-5.63 279.5,-24.88"/>
<text text-anchor="middle" x="222" y="-11.38" font-family="Helvetica,sans-Serif" font-size="10.00">Crust::Logger::warning</text>
</a>
</g>
</g>
<!-- Node1&#45;&gt;Node2 -->
<g id="edge1" class="edge">
<title>Node1&#45;&gt;Node2</title>
<path fill="none" stroke="#63b8ff" d="M128.6,-15.25C136.61,-15.25 144.84,-15.25 152.92,-15.25"/>
<polygon fill="#63b8ff" stroke="#63b8ff" points="152.71,-18.75 162.71,-15.25 152.71,-11.75 152.71,-18.75"/>
</g>
<!-- Node3 -->
<g id="node3" class="node">
<title>Node3</title>
<g id="a_node3"><a xlink:href="class_crust_1_1_logger.html#a91bf31a52746020f85e830cbfa23cfff" target="_top" xlink:title="Sets console color to colorCode and console font style to styleCode;.">
<polygon fill="white" stroke="#666666" points="429.75,-24.88 315.5,-24.88 315.5,-5.63 429.75,-5.63 429.75,-24.88"/>
<text text-anchor="middle" x="372.62" y="-11.38" font-family="Helvetica,sans-Serif" font-size="10.00">Crust::Logger::setFont</text>
</a>
</g>
</g>
<!-- Node2&#45;&gt;Node3 -->
<g id="edge2" class="edge">
<title>Node2&#45;&gt;Node3</title>
<path fill="none" stroke="#63b8ff" d="M279.61,-15.25C287.53,-15.25 295.73,-15.25 303.83,-15.25"/>
<polygon fill="#63b8ff" stroke="#63b8ff" points="303.66,-18.75 313.66,-15.25 303.66,-11.75 303.66,-18.75"/>
</g>
</g>
</svg>
