<?xml version="1.0" encoding="UTF-8" standalone="no"?>
<!DOCTYPE svg PUBLIC "-//W3C//DTD SVG 1.1//EN"
 "http://www.w3.org/Graphics/SVG/1.1/DTD/svg11.dtd">
<!-- Generated by graphviz version 10.0.1 (20240210.2158)
 -->
<!-- Title: Crust::Object Pages: 1 -->
<svg width="328pt" height="83pt"
 viewBox="0.00 0.00 328.25 82.50" xmlns="http://www.w3.org/2000/svg" xmlns:xlink="http://www.w3.org/1999/xlink">
<g id="graph0" class="graph" transform="scale(1 1) rotate(0) translate(4 78.5)">
<title>Crust::Object</title>
<!-- Node1 -->
<g id="node1" class="node">
<title>Node1</title>
<g id="a_node1"><a xlink:title="The base class for all objects in the engine.">
<polygon fill="#999999" stroke="#666666" points="184.5,-74.5 110,-74.5 110,-55.25 184.5,-55.25 184.5,-74.5"/>
<text text-anchor="middle" x="147.25" y="-61" font-family="Helvetica,sans-Serif" font-size="10.00">Crust::Object</text>
</a>
</g>
</g>
<!-- Node2 -->
<g id="node2" class="node">
<title>Node2</title>
<g id="a_node2"><a xlink:href="class_crust_1_1_camera.html" target="_top" xlink:title="Class representing the camera on a scene from which&#39;s perespective the renderer can render Mesh.">
<polygon fill="white" stroke="#666666" points="80.5,-19.25 0,-19.25 0,0 80.5,0 80.5,-19.25"/>
<text text-anchor="middle" x="40.25" y="-5.75" font-family="Helvetica,sans-Serif" font-size="10.00">Crust::Camera</text>
</a>
</g>
</g>
<!-- Node1&#45;&gt;Node2 -->
<g id="edge1" class="edge">
<title>Node1&#45;&gt;Node2</title>
<path fill="none" stroke="#63b8ff" d="M118.85,-49.74C99.72,-40.22 75.04,-27.94 58.49,-19.7"/>
<polygon fill="#63b8ff" stroke="#63b8ff" points="117.23,-52.85 127.74,-54.17 120.35,-46.58 117.23,-52.85"/>
</g>
<!-- Node3 -->
<g id="node3" class="node">
<title>Node3</title>
<g id="a_node3"><a xlink:href="class_crust_1_1_light_source.html" target="_top" xlink:title="A light source base class. Based on this class no calculation will be done. Please use derived classe...">
<polygon fill="white" stroke="#666666" points="196.12,-19.25 98.38,-19.25 98.38,0 196.12,0 196.12,-19.25"/>
<text text-anchor="middle" x="147.25" y="-5.75" font-family="Helvetica,sans-Serif" font-size="10.00">Crust::LightSource</text>
</a>
</g>
</g>
<!-- Node1&#45;&gt;Node3 -->
<g id="edge2" class="edge">
<title>Node1&#45;&gt;Node3</title>
<path fill="none" stroke="#63b8ff" d="M147.25,-43.63C147.25,-35.34 147.25,-26.17 147.25,-19.61"/>
<polygon fill="#63b8ff" stroke="#63b8ff" points="143.75,-43.57 147.25,-53.57 150.75,-43.57 143.75,-43.57"/>
</g>
<!-- Node4 -->
<g id="node4" class="node">
<title>Node4</title>
<g id="a_node4"><a xlink:href="class_crust_1_1_render_object.html" target="_top" xlink:title="A renderable object.">
<polygon fill="white" stroke="#666666" points="320.25,-19.25 214.25,-19.25 214.25,0 320.25,0 320.25,-19.25"/>
<text text-anchor="middle" x="267.25" y="-5.75" font-family="Helvetica,sans-Serif" font-size="10.00">Crust::RenderObject</text>
</a>
</g>
</g>
<!-- Node1&#45;&gt;Node4 -->
<g id="edge3" class="edge">
<title>Node1&#45;&gt;Node4</title>
<path fill="none" stroke="#63b8ff" d="M177.91,-50.27C199.52,-40.68 227.88,-28.09 246.79,-19.7"/>
<polygon fill="#63b8ff" stroke="#63b8ff" points="176.71,-46.97 168.99,-54.23 179.55,-53.37 176.71,-46.97"/>
</g>
</g>
</svg>
