<?xml version="1.0" encoding="UTF-8" standalone="no"?>
<!DOCTYPE svg PUBLIC "-//W3C//DTD SVG 1.1//EN"
 "http://www.w3.org/Graphics/SVG/1.1/DTD/svg11.dtd">
<!-- Generated by graphviz version 10.0.1 (20240210.2158)
 -->
<!-- Title: Crust::Triangle Pages: 1 -->
<svg width="114pt" height="150pt"
 viewBox="0.00 0.00 114.00 150.00" xmlns="http://www.w3.org/2000/svg" xmlns:xlink="http://www.w3.org/1999/xlink">
<g id="graph0" class="graph" transform="scale(1 1) rotate(0) translate(4 146)">
<title>Crust::Triangle</title>
<!-- Node1 -->
<g id="node1" class="node">
<title>Node1</title>
<g id="a_node1"><a xlink:title="A triangle.">
<polygon fill="#999999" stroke="#666666" points="93.25,-19.25 12.75,-19.25 12.75,0 93.25,0 93.25,-19.25"/>
<text text-anchor="middle" x="53" y="-5.75" font-family="Helvetica,sans-Serif" font-size="10.00">Crust::Triangle</text>
</a>
</g>
</g>
<!-- Node2 -->
<g id="node2" class="node">
<title>Node2</title>
<g id="a_node2"><a xlink:href="class_crust_1_1_polygon.html" target="_top" xlink:title=" ">
<polygon fill="white" stroke="#666666" points="105.25,-75.5 0.75,-75.5 0.75,-56.25 105.25,-56.25 105.25,-75.5"/>
<text text-anchor="middle" x="53" y="-62" font-family="Helvetica,sans-Serif" font-size="10.00">Crust::Polygon&lt; 3 &gt;</text>
</a>
</g>
</g>
<!-- Node2&#45;&gt;Node1 -->
<g id="edge1" class="edge">
<title>Node2&#45;&gt;Node1</title>
<path fill="none" stroke="#63b8ff" d="M53,-44.69C53,-35.98 53,-26.24 53,-19.42"/>
<polygon fill="#63b8ff" stroke="#63b8ff" points="49.5,-44.4 53,-54.4 56.5,-44.4 49.5,-44.4"/>
</g>
<!-- Node3 -->
<g id="node3" class="node">
<title>Node3</title>
<g id="a_node3"><a xlink:href="class_crust_1_1_polygon.html" target="_top" xlink:title="A polygon with a variable number of vertices.">
<polygon fill="white" stroke="#666666" points="106,-142 0,-142 0,-122.75 106,-122.75 106,-142"/>
<text text-anchor="middle" x="53" y="-128.5" font-family="Helvetica,sans-Serif" font-size="10.00">Crust::Polygon&lt; V &gt;</text>
</a>
</g>
</g>
<!-- Node3&#45;&gt;Node2 -->
<g id="edge2" class="edge">
<title>Node3&#45;&gt;Node2</title>
<path fill="none" stroke="orange" stroke-dasharray="5,2" d="M53,-110.9C53,-99.07 53,-84.79 53,-75.77"/>
<polygon fill="orange" stroke="orange" points="49.5,-110.89 53,-120.89 56.5,-110.89 49.5,-110.89"/>
<text text-anchor="middle" x="66.12" y="-95.25" font-family="Helvetica,sans-Serif" font-size="10.00"> &lt; 3 &gt;</text>
</g>
</g>
</svg>
