<?xml version="1.0" encoding="UTF-8" standalone="no"?>
<!DOCTYPE svg PUBLIC "-//W3C//DTD SVG 1.1//EN"
 "http://www.w3.org/Graphics/SVG/1.1/DTD/svg11.dtd">
<!-- Generated by graphviz version 10.0.1 (20240210.2158)
 -->
<!-- Title: Crust::Logger::setFont Pages: 1 -->
<svg width="440pt" height="224pt"
 viewBox="0.00 0.00 440.00 223.50" xmlns="http://www.w3.org/2000/svg" xmlns:xlink="http://www.w3.org/1999/xlink">
<g id="graph0" class="graph" transform="scale(1 1) rotate(0) translate(4 219.5)">
<title>Crust::Logger::setFont</title>
<!-- Node1 -->
<g id="node1" class="node">
<title>Node1</title>
<g id="a_node1"><a xlink:title="Sets console color to colorCode and console font style to styleCode;.">
<polygon fill="#999999" stroke="#666666" points="432,-116.88 317.75,-116.88 317.75,-97.62 432,-97.62 432,-116.88"/>
<text text-anchor="middle" x="374.88" y="-103.38" font-family="Helvetica,sans-Serif" font-size="10.00">Crust::Logger::setFont</text>
</a>
</g>
</g>
<!-- Node2 -->
<g id="node2" class="node">
<title>Node2</title>
<g id="a_node2"><a xlink:href="class_crust_1_1_logger.html#a448306e417ab259008d4d2ee85e624c5" target="_top" xlink:title="Logs onto the console in red color.">
<polygon fill="white" stroke="#666666" points="273.5,-209.88 172.75,-209.88 172.75,-190.62 273.5,-190.62 273.5,-209.88"/>
<text text-anchor="middle" x="223.12" y="-196.38" font-family="Helvetica,sans-Serif" font-size="10.00">Crust::Logger::error</text>
</a>
</g>
</g>
<!-- Node1&#45;&gt;Node2 -->
<g id="edge1" class="edge">
<title>Node1&#45;&gt;Node2</title>
<path fill="none" stroke="#63b8ff" d="M356.18,-125.18C338.65,-142.02 310.37,-166.87 281.75,-182.25 276.03,-185.33 269.69,-187.97 263.39,-190.2"/>
<polygon fill="#63b8ff" stroke="#63b8ff" points="358.54,-127.76 363.22,-118.25 353.64,-122.76 358.54,-127.76"/>
</g>
<!-- Node4 -->
<g id="node4" class="node">
<title>Node4</title>
<g id="a_node4"><a xlink:href="class_crust_1_1_logger.html#a97fb232241dad146c5581564447fec86" target="_top" xlink:title="Logs onto the console in blue color.">
<polygon fill="white" stroke="#666666" points="271.62,-172.88 174.62,-172.88 174.62,-153.62 271.62,-153.62 271.62,-172.88"/>
<text text-anchor="middle" x="223.12" y="-159.38" font-family="Helvetica,sans-Serif" font-size="10.00">Crust::Logger::info</text>
</a>
</g>
</g>
<!-- Node1&#45;&gt;Node4 -->
<g id="edge3" class="edge">
<title>Node1&#45;&gt;Node4</title>
<path fill="none" stroke="#63b8ff" d="M340.78,-121.73C323.36,-129.14 301.56,-138.09 281.75,-145.25 274.16,-147.99 265.92,-150.72 258.11,-153.18"/>
<polygon fill="#63b8ff" stroke="#63b8ff" points="341.8,-125.1 349.61,-117.94 339.04,-118.67 341.8,-125.1"/>
</g>
<!-- Node5 -->
<g id="node5" class="node">
<title>Node5</title>
<g id="a_node5"><a xlink:href="class_crust_1_1_logger.html#a607b2a3d57bbad20cd450f0cf9aa4c8d" target="_top" xlink:title="Logs onto the console with standard printf&#45;like interface.">
<polygon fill="white" stroke="#666666" points="270.12,-135.88 176.12,-135.88 176.12,-116.62 270.12,-116.62 270.12,-135.88"/>
<text text-anchor="middle" x="223.12" y="-122.38" font-family="Helvetica,sans-Serif" font-size="10.00">Crust::Logger::log</text>
</a>
</g>
</g>
<!-- Node1&#45;&gt;Node5 -->
<g id="edge4" class="edge">
<title>Node1&#45;&gt;Node5</title>
<path fill="none" stroke="#63b8ff" d="M305.91,-115.87C293.96,-117.39 281.77,-118.94 270.58,-120.36"/>
<polygon fill="#63b8ff" stroke="#63b8ff" points="306.28,-119.35 315.76,-114.62 305.4,-112.41 306.28,-119.35"/>
</g>
<!-- Node6 -->
<g id="node6" class="node">
<title>Node6</title>
<g id="a_node6"><a xlink:href="class_crust_1_1_logger.html#a4efaea5b99b4d3691649dd7dfa2dbd06" target="_top" xlink:title="Logs onto the console.">
<polygon fill="white" stroke="#666666" points="281.75,-98.88 164.5,-98.88 164.5,-79.62 281.75,-79.62 281.75,-98.88"/>
<text text-anchor="middle" x="223.12" y="-85.38" font-family="Helvetica,sans-Serif" font-size="10.00">Crust::Logger::logInline</text>
</a>
</g>
</g>
<!-- Node1&#45;&gt;Node6 -->
<g id="edge5" class="edge">
<title>Node1&#45;&gt;Node6</title>
<path fill="none" stroke="#63b8ff" d="M305.97,-99.09C297.9,-98.12 289.72,-97.13 281.81,-96.18"/>
<polygon fill="#63b8ff" stroke="#63b8ff" points="305.41,-102.55 315.76,-100.26 306.25,-95.6 305.41,-102.55"/>
</g>
<!-- Node8 -->
<g id="node8" class="node">
<title>Node8</title>
<g id="a_node8"><a xlink:href="class_crust_1_1_logger.html#ab8333ea3d528ce8ccd3d91897adc0b04" target="_top" xlink:title="Sets console color to colorCode.">
<polygon fill="white" stroke="#666666" points="280.25,-61.88 166,-61.88 166,-42.62 280.25,-42.62 280.25,-61.88"/>
<text text-anchor="middle" x="223.12" y="-48.38" font-family="Helvetica,sans-Serif" font-size="10.00">Crust::Logger::setFont</text>
</a>
</g>
</g>
<!-- Node1&#45;&gt;Node8 -->
<g id="edge7" class="edge">
<title>Node1&#45;&gt;Node8</title>
<path fill="none" stroke="#63b8ff" d="M340.03,-92.91C322.72,-85.77 301.25,-77.2 281.75,-70.25 274.15,-67.54 265.91,-64.83 258.1,-62.37"/>
<polygon fill="#63b8ff" stroke="#63b8ff" points="338.24,-95.96 348.82,-96.56 340.93,-89.49 338.24,-95.96"/>
</g>
<!-- Node9 -->
<g id="node9" class="node">
<title>Node9</title>
<g id="a_node9"><a xlink:href="class_crust_1_1_logger.html#ae9da193539eafa2563ee313c92f37317" target="_top" xlink:title="Logs onto the console in yellow color.">
<polygon fill="white" stroke="#666666" points="280.62,-24.88 165.62,-24.88 165.62,-5.62 280.62,-5.62 280.62,-24.88"/>
<text text-anchor="middle" x="223.12" y="-11.38" font-family="Helvetica,sans-Serif" font-size="10.00">Crust::Logger::warning</text>
</a>
</g>
</g>
<!-- Node1&#45;&gt;Node9 -->
<g id="edge8" class="edge">
<title>Node1&#45;&gt;Node9</title>
<path fill="none" stroke="#63b8ff" d="M355.85,-89.31C338.27,-72.7 310.12,-48.37 281.75,-33.25 276.02,-30.19 269.68,-27.56 263.37,-25.33"/>
<polygon fill="#63b8ff" stroke="#63b8ff" points="353.3,-91.72 362.93,-96.14 358.16,-86.68 353.3,-91.72"/>
</g>
<!-- Node3 -->
<g id="node3" class="node">
<title>Node3</title>
<g id="a_node3"><a xlink:href="class_crust_1_1_exceptions_handler.html#ae94d84379a8fd5514284bb2f585271e3" target="_top" xlink:title="Throws an error and ends the engine work immedietly. It also prints message in red color on the conso...">
<polygon fill="white" stroke="#666666" points="128.5,-215.5 0,-215.5 0,-185 128.5,-185 128.5,-215.5"/>
<text text-anchor="start" x="8" y="-202" font-family="Helvetica,sans-Serif" font-size="10.00">Crust::ExceptionsHandler</text>
<text text-anchor="middle" x="64.25" y="-190.75" font-family="Helvetica,sans-Serif" font-size="10.00">::throwError</text>
</a>
</g>
</g>
<!-- Node2&#45;&gt;Node3 -->
<g id="edge2" class="edge">
<title>Node2&#45;&gt;Node3</title>
<path fill="none" stroke="#63b8ff" d="M161.22,-200.25C150.63,-200.25 139.6,-200.25 128.94,-200.25"/>
<polygon fill="#63b8ff" stroke="#63b8ff" points="160.98,-203.75 170.98,-200.25 160.98,-196.75 160.98,-203.75"/>
</g>
<!-- Node7 -->
<g id="node7" class="node">
<title>Node7</title>
<g id="a_node7"><a xlink:href="class_crust_1_1_logger.html#a001b5178d48140f3183d35a89c6cfbb2" target="_top" xlink:title="Logs matrix onto the console.">
<polygon fill="white" stroke="#666666" points="111.25,-98.88 17.25,-98.88 17.25,-79.62 111.25,-79.62 111.25,-98.88"/>
<text text-anchor="middle" x="64.25" y="-85.38" font-family="Helvetica,sans-Serif" font-size="10.00">Crust::Logger::log</text>
</a>
</g>
</g>
<!-- Node6&#45;&gt;Node7 -->
<g id="edge6" class="edge">
<title>Node6&#45;&gt;Node7</title>
<path fill="none" stroke="#63b8ff" d="M152.65,-89.25C138.8,-89.25 124.57,-89.25 111.72,-89.25"/>
<polygon fill="#63b8ff" stroke="#63b8ff" points="152.64,-92.75 162.64,-89.25 152.64,-85.75 152.64,-92.75"/>
</g>
<!-- Node10 -->
<g id="node10" class="node">
<title>Node10</title>
<g id="a_node10"><a xlink:href="class_crust_1_1_exceptions_handler.html#a1d66007828c72e56d8bc3e2aa205f017" target="_top" xlink:title="Throws a warning. It also prints message in yellow color on the console.">
<polygon fill="white" stroke="#666666" points="128.5,-30.5 0,-30.5 0,0 128.5,0 128.5,-30.5"/>
<text text-anchor="start" x="8" y="-17" font-family="Helvetica,sans-Serif" font-size="10.00">Crust::ExceptionsHandler</text>
<text text-anchor="middle" x="64.25" y="-5.75" font-family="Helvetica,sans-Serif" font-size="10.00">::throwWarning</text>
</a>
</g>
</g>
<!-- Node9&#45;&gt;Node10 -->
<g id="edge9" class="edge">
<title>Node9&#45;&gt;Node10</title>
<path fill="none" stroke="#63b8ff" d="M154.21,-15.25C145.83,-15.25 137.3,-15.25 128.99,-15.25"/>
<polygon fill="#63b8ff" stroke="#63b8ff" points="153.98,-18.75 163.98,-15.25 153.98,-11.75 153.98,-18.75"/>
</g>
</g>
</svg>
