<?xml version="1.0" encoding="UTF-8" standalone="no"?>
<!DOCTYPE svg PUBLIC "-//W3C//DTD SVG 1.1//EN"
 "http://www.w3.org/Graphics/SVG/1.1/DTD/svg11.dtd">
<!-- Generated by graphviz version 10.0.1 (20240210.2158)
 -->
<!-- Title: Crust::TimeProvider::getAverageFrameTime_s Pages: 1 -->
<svg width="419pt" height="39pt"
 viewBox="0.00 0.00 419.00 38.50" xmlns="http://www.w3.org/2000/svg" xmlns:xlink="http://www.w3.org/1999/xlink">
<g id="graph0" class="graph" transform="scale(1 1) rotate(0) translate(4 34.5)">
<title>Crust::TimeProvider::getAverageFrameTime_s</title>
<!-- Node1 -->
<g id="node1" class="node">
<title>Node1</title>
<g id="a_node1"><a xlink:title="Returns average frame time from engine start in seconds.">
<polygon fill="#999999" stroke="#666666" points="131.5,-30.5 0,-30.5 0,0 131.5,0 131.5,-30.5"/>
<text text-anchor="start" x="8" y="-17" font-family="Helvetica,sans-Serif" font-size="10.00">Crust::TimeProvider</text>
<text text-anchor="middle" x="65.75" y="-5.75" font-family="Helvetica,sans-Serif" font-size="10.00">::getAverageFrameTime_s</text>
</a>
</g>
</g>
<!-- Node2 -->
<g id="node2" class="node">
<title>Node2</title>
<g id="a_node2"><a xlink:href="class_crust_1_1_time_provider.html#ab006c8030ac9fe2c39992dfd3207d17e" target="_top" xlink:title="Returns time from engine&#39;s core start in seconds.">
<polygon fill="white" stroke="#666666" points="271.25,-30.5 167.5,-30.5 167.5,0 271.25,0 271.25,-30.5"/>
<text text-anchor="start" x="175.5" y="-17" font-family="Helvetica,sans-Serif" font-size="10.00">Crust::TimeProvider</text>
<text text-anchor="middle" x="219.38" y="-5.75" font-family="Helvetica,sans-Serif" font-size="10.00">::getTime_s</text>
</a>
</g>
</g>
<!-- Node1&#45;&gt;Node2 -->
<g id="edge1" class="edge">
<title>Node1&#45;&gt;Node2</title>
<path fill="none" stroke="#63b8ff" d="M131.93,-15.25C139.91,-15.25 148.06,-15.25 155.99,-15.25"/>
<polygon fill="#63b8ff" stroke="#63b8ff" points="155.92,-18.75 165.92,-15.25 155.92,-11.75 155.92,-18.75"/>
</g>
<!-- Node3 -->
<g id="node3" class="node">
<title>Node3</title>
<g id="a_node3"><a xlink:href="class_crust_1_1_time_provider.html#a7bd079284fc824dbd96c6d863197566c" target="_top" xlink:title="Returns time from engine&#39;s core start in milliseconds.">
<polygon fill="white" stroke="#666666" points="411,-30.5 307.25,-30.5 307.25,0 411,0 411,-30.5"/>
<text text-anchor="start" x="315.25" y="-17" font-family="Helvetica,sans-Serif" font-size="10.00">Crust::TimeProvider</text>
<text text-anchor="middle" x="359.12" y="-5.75" font-family="Helvetica,sans-Serif" font-size="10.00">::getTime_ms</text>
</a>
</g>
</g>
<!-- Node2&#45;&gt;Node3 -->
<g id="edge2" class="edge">
<title>Node2&#45;&gt;Node3</title>
<path fill="none" stroke="#63b8ff" d="M271.67,-15.25C279.38,-15.25 287.4,-15.25 295.32,-15.25"/>
<polygon fill="#63b8ff" stroke="#63b8ff" points="295.28,-18.75 305.28,-15.25 295.28,-11.75 295.28,-18.75"/>
</g>
</g>
</svg>
