<?xml version="1.0" encoding="UTF-8" standalone="no"?>
<!DOCTYPE svg PUBLIC "-//W3C//DTD SVG 1.1//EN"
 "http://www.w3.org/Graphics/SVG/1.1/DTD/svg11.dtd">
<!-- Generated by graphviz version 10.0.1 (20240210.2158)
 -->
<!-- Title: Graphical Class Hierarchy Pages: 1 -->
<svg width="225pt" height="101pt"
 viewBox="0.00 0.00 224.50 101.25" xmlns="http://www.w3.org/2000/svg" xmlns:xlink="http://www.w3.org/1999/xlink">
<g id="graph0" class="graph" transform="scale(1 1) rotate(0) translate(4 97.25)">
<title>Graphical Class Hierarchy</title>
<!-- Node0 -->
<g id="node1" class="node">
<title>Node0</title>
<g id="a_node1"><a xlink:href="class_crust_1_1_object.html" target="_top" xlink:title="The base class for all objects in the engine.">
<polygon fill="white" stroke="#666666" points="74.5,-56.25 0,-56.25 0,-37 74.5,-37 74.5,-56.25"/>
<text text-anchor="middle" x="37.25" y="-42.75" font-family="Helvetica,sans-Serif" font-size="10.00">Crust::Object</text>
</a>
</g>
</g>
<!-- Node1 -->
<g id="node2" class="node">
<title>Node1</title>
<g id="a_node2"><a xlink:href="class_crust_1_1_camera.html" target="_top" xlink:title="Class representing the camera on a scene from which&#39;s perespective the renderer can render Mesh.">
<polygon fill="white" stroke="#666666" points="203.75,-93.25 123.25,-93.25 123.25,-74 203.75,-74 203.75,-93.25"/>
<text text-anchor="middle" x="163.5" y="-79.75" font-family="Helvetica,sans-Serif" font-size="10.00">Crust::Camera</text>
</a>
</g>
</g>
<!-- Node0&#45;&gt;Node1 -->
<g id="edge1" class="edge">
<title>Node0&#45;&gt;Node1</title>
<path fill="none" stroke="#63b8ff" d="M82.85,-59.91C97.92,-64.39 114.49,-69.33 128.59,-73.53"/>
<polygon fill="#63b8ff" stroke="#63b8ff" points="84.24,-56.67 73.65,-57.17 82.24,-63.38 84.24,-56.67"/>
</g>
<!-- Node2 -->
<g id="node3" class="node">
<title>Node2</title>
<g id="a_node3"><a xlink:href="class_crust_1_1_light_source.html" target="_top" xlink:title="A light source base class. Based on this class no calculation will be done. Please use derived classe...">
<polygon fill="white" stroke="#666666" points="212.38,-56.25 114.62,-56.25 114.62,-37 212.38,-37 212.38,-56.25"/>
<text text-anchor="middle" x="163.5" y="-42.75" font-family="Helvetica,sans-Serif" font-size="10.00">Crust::LightSource</text>
</a>
</g>
</g>
<!-- Node0&#45;&gt;Node2 -->
<g id="edge2" class="edge">
<title>Node0&#45;&gt;Node2</title>
<path fill="none" stroke="#63b8ff" d="M86.19,-46.62C95.37,-46.62 104.98,-46.62 114.17,-46.62"/>
<polygon fill="#63b8ff" stroke="#63b8ff" points="86.37,-43.13 76.37,-46.63 86.37,-50.13 86.37,-43.13"/>
</g>
<!-- Node3 -->
<g id="node4" class="node">
<title>Node3</title>
<g id="a_node4"><a xlink:href="class_crust_1_1_render_object.html" target="_top" xlink:title="A renderable object.">
<polygon fill="white" stroke="#666666" points="216.5,-19.25 110.5,-19.25 110.5,0 216.5,0 216.5,-19.25"/>
<text text-anchor="middle" x="163.5" y="-5.75" font-family="Helvetica,sans-Serif" font-size="10.00">Crust::RenderObject</text>
</a>
</g>
</g>
<!-- Node0&#45;&gt;Node3 -->
<g id="edge3" class="edge">
<title>Node0&#45;&gt;Node3</title>
<path fill="none" stroke="#63b8ff" d="M82.85,-33.34C97.92,-28.86 114.49,-23.92 128.59,-19.72"/>
<polygon fill="#63b8ff" stroke="#63b8ff" points="82.24,-29.87 73.65,-36.08 84.24,-36.58 82.24,-29.87"/>
</g>
</g>
</svg>
